<svg xmlns="http://www.w3.org/2000/svg" viewBox="0 0 800 500" fill="none">
  <defs>
    <linearGradient id="bg6" x1="0%" y1="0%" x2="100%" y2="100%">
      <stop offset="0%" stop-color="#0A0A0A"/>
      <stop offset="50%" stop-color="#1A080A"/>
      <stop offset="100%" stop-color="#000000"/>
    </linearGradient>
  </defs>
  <rect width="800" height="500" fill="url(#bg6)"/>
  <!-- Multi-tier Arena Truss Structure -->
  <path d="M80 60h640M80 90h640M120 60v360M680 60v360" stroke="#444" stroke-width="3"/>
  <path d="M120 90l40 40M160 90l40 40M200 90l40 40M560 90l40 40M600 90l40 40M640 90l40 40" stroke="#555" stroke-width="1.5"/>
  <!-- Sharpy and Laser Beams -->
  <polygon points="200,90 320,400 300,400" fill="#D71920" opacity="0.4"/>
  <polygon points="600,90 480,400 500,400" fill="#D71920" opacity="0.4"/>
  <polygon points="320,90 400,380 380,380" fill="#00E5FF" opacity="0.3"/>
  <polygon points="480,90 400,380 420,380" fill="#FFD700" opacity="0.3"/>
  <!-- Massive Arena Stage -->
  <polygon points="160,400 640,400 700,470 100,470" fill="#151515" stroke="#D71920" stroke-width="2"/>
  <rect x="260" y="200" width="280" height="150" rx="6" fill="#111" stroke="#333" stroke-width="1"/>
  <text x="400" y="270" font-family="'Plus Jakarta Sans', sans-serif" font-size="18" font-weight="900" fill="#FFFFFF" text-anchor="middle" letter-spacing="3">MEGA CONCERT PRODUCTION</text>
  <text x="400" y="300" font-family="'Plus Jakarta Sans', sans-serif" font-size="11" font-weight="600" fill="#D71920" text-anchor="middle" letter-spacing="3">LINE ARRAY AUDIO &amp; INTELLIGENT LIGHTING</text>
</svg>