<svg xmlns="http://www.w3.org/2000/svg" viewBox="0 0 800 500" fill="none">
  <defs>
    <linearGradient id="bg5" x1="0%" y1="0%" x2="100%" y2="100%">
      <stop offset="0%" stop-color="#181012"/>
      <stop offset="50%" stop-color="#281216"/>
      <stop offset="100%" stop-color="#11090B"/>
    </linearGradient>
  </defs>
  <rect width="800" height="500" fill="url(#bg5)"/>
  <!-- Mandap Architectural Arch -->
  <path d="M260 400V200c0 -70 60 -100 140 -100s140 30 140 100v200" stroke="#C5A059" stroke-width="3" fill="none"/>
  <path d="M290 400V210c0 -55 50 -80 110 -80s110 25 110 80v190" stroke="#D71920" stroke-width="2" fill="none" stroke-opacity="0.6"/>
  <!-- Floral chandelier rings -->
  <ellipse cx="400" cy="180" rx="70" ry="18" stroke="#C5A059" stroke-width="2" fill="#C5A059" fill-opacity="0.1"/>
  <ellipse cx="400" cy="220" rx="50" ry="14" stroke="#D71920" stroke-width="1.5" fill="#D71920" fill-opacity="0.1"/>
  <!-- Ambient fairy lights and candles -->
  <circle cx="320" cy="280" r="3" fill="#F9E79F"/>
  <circle cx="480" cy="280" r="3" fill="#F9E79F"/>
  <circle cx="360" cy="240" r="2.5" fill="#F9E79F"/>
  <circle cx="440" cy="240" r="2.5" fill="#F9E79F"/>
  <text x="400" y="330" font-family="'Playfair Display', serif" font-size="20" font-weight="700" fill="#C5A059" text-anchor="middle" letter-spacing="3">ROYAL HERITAGE SETUP</text>
  <text x="400" y="358" font-family="'Plus Jakarta Sans', sans-serif" font-size="11" font-weight="600" fill="#FFF" text-anchor="middle" letter-spacing="2">MANDAP &amp; DÉCOR FABRICATION</text>
  <rect x="220" y="390" width="360" height="40" rx="4" fill="#221417" stroke="#C5A059" stroke-width="1"/>
</svg>